<svg width="28" height="28" viewBox="0 0 28 28" fill="none" xmlns="http://www.w3.org/2000/svg">
<path d="M14 26.25C20.7655 26.25 26.25 20.7655 26.25 14C26.25 7.23451 20.7655 1.75 14 1.75C7.23451 1.75 1.75 7.23451 1.75 14C1.75 20.7655 7.23451 26.25 14 26.25Z" fill="white"/>
<path d="M18.562 17.7464L19.1061 14.2888H15.702V12.0461C15.702 11.1 16.1767 10.1772 17.7014 10.1772H19.25V7.23362C19.25 7.23362 17.8452 7 16.5028 7C13.698 7 11.8665 8.65632 11.8665 11.6536V14.2888H8.75V17.7464H11.8665V26.1052C12.4921 26.201 13.1322 26.25 13.7842 26.25C14.4363 26.25 15.0764 26.201 15.702 26.1052V17.7464H18.562Z" fill="#407BFF"/>
</svg>
