
<svg width="66" height="66" viewBox="0 0 66 66" fill="none" xmlns="http://www.w3.org/2000/svg">
<path d="M32.7467 61.4001C48.5715 61.4001 61.4001 48.5715 61.4001 32.7467C61.4001 16.9218 48.5715 4.09326 32.7467 4.09326C16.9218 4.09326 4.09326 16.9218 4.09326 32.7467C4.09326 48.5715 16.9218 61.4001 32.7467 61.4001Z" fill="white"/>
<path d="M43.4176 41.5097L44.6904 33.4223H36.728V28.1765C36.728 25.9634 37.8383 23.805 41.4047 23.805H45.0269V16.9197C45.0269 16.9197 41.7409 16.3733 38.6009 16.3733C32.0403 16.3733 27.7564 20.2475 27.7564 27.2583V33.4223H20.4668V41.5097H27.7564V61.0614C29.2198 61.2855 30.7169 61.4001 32.2421 61.4001C33.7673 61.4001 35.2647 61.2855 36.728 61.0614V41.5097H43.4176Z" fill="#407BFF"/>
</svg>
