
<svg width="66" height="66" viewBox="0 0 66 66" fill="none" xmlns="http://www.w3.org/2000/svg">
<circle cx="32.7468" cy="32.7468" r="32.7468" fill="white"/>
<path d="M44.2473 18.5366L32.869 27.4165L21.2305 18.5366V18.539L21.2445 18.551V30.9853L32.7378 40.057L44.2473 31.3355V18.5366Z" fill="#EA4335"/>
<path d="M47.2342 16.3767L44.2461 18.5366V31.3356L53.6487 24.1166V19.7678C53.6487 19.7678 52.5075 13.5567 47.2342 16.3767Z" fill="#FBBC05"/>
<path d="M44.2461 31.3354V47.936H51.4527C51.4527 47.936 53.5035 47.7248 53.651 45.3872V24.1165L44.2461 31.3354Z" fill="#34A853"/>
<path d="M21.2436 47.9505V30.9851L21.2305 30.9731L21.2436 47.9505Z" fill="#C5221F"/>
<path d="M21.23 18.5387L18.2582 16.3908C12.985 13.5708 11.8413 19.7795 11.8413 19.7795V24.1282L21.23 30.973V18.5387Z" fill="#C5221F"/>
<path d="M21.2305 18.5393V30.9736L21.2436 30.9855V18.5513L21.2305 18.5393Z" fill="#C5221F"/>
<path d="M11.8413 24.1313V45.4021C11.9866 47.7422 14.0397 47.951 14.0397 47.951H21.2464L21.23 30.9737L11.8413 24.1313Z" fill="#4285F4"/>
</svg>
