<svg width="28" height="28" viewBox="0 0 28 28" fill="none" xmlns="http://www.w3.org/2000/svg">
<circle cx="14" cy="14" r="14" fill="white"/>
<path d="M18.9169 7.92493L14.0524 11.7213L9.07666 7.92493V7.92595L9.08267 7.93109V13.247L13.9963 17.1254L18.9169 13.3967V7.92493Z" fill="#EA4335"/>
<path d="M20.1938 7.00144L18.9163 7.92487V13.3967L22.9361 10.3104V8.45122C22.9361 8.45122 22.4482 5.79584 20.1938 7.00144Z" fill="#FBBC05"/>
<path d="M18.9163 13.3967V20.4938H21.9973C21.9973 20.4938 22.874 20.4035 22.9371 19.4042V10.3104L18.9163 13.3967Z" fill="#34A853"/>
<path d="M9.08228 20.5V13.2469L9.07666 13.2418L9.08228 20.5Z" fill="#C5221F"/>
<path d="M9.07636 7.92582L7.80587 7.00751C5.55145 5.80192 5.0625 8.45628 5.0625 8.45628V10.3154L9.07636 13.2417V7.92582Z" fill="#C5221F"/>
<path d="M9.07666 7.92603V13.242L9.08228 13.2471V7.93116L9.07666 7.92603Z" fill="#C5221F"/>
<path d="M5.0625 10.3168V19.4105C5.12462 20.4109 6.00234 20.5002 6.00234 20.5002H9.08337L9.07636 13.242L5.0625 10.3168Z" fill="#4285F4"/>
</svg>
