<svg width="65" height="65" viewBox="0 0 65 65" fill="none" xmlns="http://www.w3.org/2000/svg">
<path d="M11.9884 55.252L7.42422 4.0625H57.5758L53.0055 55.2439L32.4695 60.9375L11.9884 55.252Z" fill="#E44F26"/>
<path d="M32.5 56.5866L49.0953 51.9858L52.9994 8.2489H32.5V56.5866Z" fill="#F1662A"/>
<path d="M32.5 27.233H24.1922L23.6194 20.8041H32.5V14.5255H32.4777H16.7578L16.9081 16.2114L18.4498 33.5116H32.5V27.233Z" fill="#EBEBEB"/>
<path d="M32.5 43.5378L32.4716 43.5459L25.48 41.6589L25.0331 36.6519H21.6349H18.7302L19.6097 46.5075L32.4716 50.0784L32.5 50.0703V43.5378Z" fill="#EBEBEB"/>
<path d="M32.4777 27.2329V33.5115H40.2086L39.4814 41.6548L32.4777 43.5438V50.0763L45.3497 46.5074L45.4431 45.4471L46.9178 28.9188L47.0722 27.2329H45.3802H32.4777Z" fill="white"/>
<path d="M32.4777 14.5255V18.4255V20.7899V20.8041H47.6227H47.643L47.7689 19.3944L48.0553 16.2115L48.2056 14.5255H32.4777Z" fill="white"/>
</svg>
