<svg xmlns="http://www.w3.org/2000/svg" width="60" height="60" viewBox="0 0 60 60" fill="none">
  <g clip-path="url(#clip0_102_5)">
    <path d="M30 60C46.5685 60 60 46.5685 60 30C60 13.4315 46.5685 0 30 0C13.4315 0 0 13.4315 0 30C0 46.5685 13.4315 60 30 60Z" fill="white"/>
    <path d="M40.7143 11.25H19.2857C14.8477 11.25 11.25 14.8477 11.25 19.2857V40.7143C11.25 45.1524 14.8477 48.75 19.2857 48.75H40.7143C45.1524 48.75 48.75 45.1524 48.75 40.7143V19.2857C48.75 14.8477 45.1524 11.25 40.7143 11.25Z" fill="url(#paint0_radial_102_5)"/>
    <path d="M40.7143 11.25H19.2857C14.8477 11.25 11.25 14.8477 11.25 19.2857V40.7143C11.25 45.1524 14.8477 48.75 19.2857 48.75H40.7143C45.1524 48.75 48.75 45.1524 48.75 40.7143V19.2857C48.75 14.8477 45.1524 11.25 40.7143 11.25Z" fill="url(#paint1_radial_102_5)"/>
    <path d="M40.7143 11.25H19.2857C14.8477 11.25 11.25 14.8477 11.25 19.2857V40.7143C11.25 45.1524 14.8477 48.75 19.2857 48.75H40.7143C45.1524 48.75 48.75 45.1524 48.75 40.7143V19.2857C48.75 14.8477 45.1524 11.25 40.7143 11.25Z" fill="url(#paint2_radial_102_5)"/>
    <path d="M39.375 22.6339C39.375 23.7435 38.4757 24.6429 37.3661 24.6429C36.2565 24.6429 35.3572 23.7435 35.3572 22.6339C35.3572 21.5244 36.2565 20.625 37.3661 20.625C38.4757 20.625 39.375 21.5244 39.375 22.6339Z" fill="white"/>
    <path fill-rule="evenodd" clip-rule="evenodd" d="M29.9999 36.6963C33.6983 36.6963 36.6963 33.6983 36.6963 29.9999C36.6963 26.3015 33.6983 23.3035 29.9999 23.3035C26.3015 23.3035 23.3035 26.3015 23.3035 29.9999C23.3035 33.6983 26.3015 36.6963 29.9999 36.6963ZM29.9999 34.0178C32.219 34.0178 34.0178 32.219 34.0178 29.9999C34.0178 27.7808 32.219 25.982 29.9999 25.982C27.7808 25.982 25.982 27.7808 25.982 29.9999C25.982 32.219 27.7808 34.0178 29.9999 34.0178Z" fill="white"/>
    <path fill-rule="evenodd" clip-rule="evenodd" d="M16.6072 29.4643C16.6072 24.9639 16.6072 22.7137 17.483 20.9948C18.2534 19.4827 19.4827 18.2534 20.9948 17.483C22.7137 16.6072 24.9639 16.6072 29.4643 16.6072H30.5358C35.0362 16.6072 37.2864 16.6072 39.0052 17.483C40.5174 18.2534 41.7467 19.4827 42.5171 20.9948C43.3929 22.7137 43.3929 24.9639 43.3929 29.4643V30.5358C43.3929 35.0362 43.3929 37.2864 42.5171 39.0052C41.7467 40.5174 40.5174 41.7467 39.0052 42.5171C37.2864 43.3929 35.0362 43.3929 30.5358 43.3929H29.4643C24.9639 43.3929 22.7137 43.3929 20.9948 42.5171C19.4827 41.7467 18.2534 40.5174 17.483 39.0052C16.6072 37.2864 16.6072 35.0362 16.6072 30.5358V29.4643ZM29.4643 19.2857H30.5358C32.8301 19.2857 34.3899 19.2878 35.5955 19.3863C36.77 19.4823 37.3704 19.6562 37.7893 19.8696C38.7973 20.3833 39.6168 21.2028 40.1304 22.2107C40.3438 22.6297 40.5178 23.2301 40.6138 24.4046C40.7122 25.6102 40.7143 27.17 40.7143 29.4643V30.5358C40.7143 32.8301 40.7122 34.3899 40.6138 35.5955C40.5178 36.77 40.3438 37.3704 40.1304 37.7893C39.6168 38.7973 38.7973 39.6168 37.7893 40.1304C37.3704 40.3438 36.77 40.5178 35.5955 40.6138C34.3899 40.7122 32.8301 40.7143 30.5358 40.7143H29.4643C27.17 40.7143 25.6102 40.7122 24.4046 40.6138C23.2301 40.5178 22.6297 40.3438 22.2107 40.1304C21.2028 39.6168 20.3833 38.7973 19.8696 37.7893C19.6562 37.3704 19.4823 36.77 19.3863 35.5955C19.2878 34.3899 19.2857 32.8301 19.2857 30.5358V29.4643C19.2857 27.17 19.2878 25.6102 19.3863 24.4046C19.4823 23.2301 19.6562 22.6297 19.8696 22.2107C20.3833 21.2028 21.2028 20.3833 22.2107 19.8696C22.6297 19.6562 23.2301 19.4823 24.4046 19.3863C25.6102 19.2878 27.17 19.2857 29.4643 19.2857Z" fill="white"/>
  </g>
  <defs>
    <radialGradient id="paint0_radial_102_5" cx="0" cy="0" r="1" gradientUnits="userSpaceOnUse" gradientTransform="translate(24.6429 39.375) rotate(-55.3758) scale(34.1781)">
      <stop stop-color="#B13589"/>
      <stop offset="0.79309" stop-color="#C62F94"/>
      <stop offset="1" stop-color="#8A3AC8"/>
    </radialGradient>
    <radialGradient id="paint1_radial_102_5" cx="0" cy="0" r="1" gradientUnits="userSpaceOnUse" gradientTransform="translate(23.3036 50.0893) rotate(-65.1363) scale(30.2601)">
      <stop stop-color="#E0E8B7"/>
      <stop offset="0.444662" stop-color="#FB8A2E"/>
      <stop offset="0.71474" stop-color="#E2425C"/>
      <stop offset="1" stop-color="#E2425C" stop-opacity="0"/>
    </radialGradient>
    <radialGradient id="paint2_radial_102_5" cx="0" cy="0" r="1" gradientUnits="userSpaceOnUse" gradientTransform="translate(9.24107 12.5893) rotate(-8.1301) scale(52.086 11.1407)">
      <stop offset="0.156701" stop-color="#406ADC"/>
      <stop offset="0.467799" stop-color="#6A45BE"/>
      <stop offset="1" stop-color="#6A45BE" stop-opacity="0"/>
    </radialGradient>
    <clipPath id="clip0_102_5">
      <rect width="60" height="60" fill="white"/>
    </clipPath>
  </defs>
</svg>