<svg width="28" height="28" viewBox="0 0 28 28" fill="none" xmlns="http://www.w3.org/2000/svg">
<circle cx="14" cy="14" r="14" fill="white"/>
<path d="M19 5.25H9C6.92893 5.25 5.25 6.92893 5.25 9V19C5.25 21.0711 6.92893 22.75 9 22.75H19C21.0711 22.75 22.75 21.0711 22.75 19V9C22.75 6.92893 21.0711 5.25 19 5.25Z" fill="url(#paint0_radial_56_836)"/>
<path d="M19 5.25H9C6.92893 5.25 5.25 6.92893 5.25 9V19C5.25 21.0711 6.92893 22.75 9 22.75H19C21.0711 22.75 22.75 21.0711 22.75 19V9C22.75 6.92893 21.0711 5.25 19 5.25Z" fill="url(#paint1_radial_56_836)"/>
<path d="M19 5.25H9C6.92893 5.25 5.25 6.92893 5.25 9V19C5.25 21.0711 6.92893 22.75 9 22.75H19C21.0711 22.75 22.75 21.0711 22.75 19V9C22.75 6.92893 21.0711 5.25 19 5.25Z" fill="url(#paint2_radial_56_836)"/>
<path d="M18.375 10.5625C18.375 11.0803 17.9553 11.5 17.4375 11.5C16.9197 11.5 16.5 11.0803 16.5 10.5625C16.5 10.0447 16.9197 9.625 17.4375 9.625C17.9553 9.625 18.375 10.0447 18.375 10.5625Z" fill="white"/>
<path fill-rule="evenodd" clip-rule="evenodd" d="M14 17.125C15.7259 17.125 17.125 15.7259 17.125 14C17.125 12.2741 15.7259 10.875 14 10.875C12.2741 10.875 10.875 12.2741 10.875 14C10.875 15.7259 12.2741 17.125 14 17.125ZM14 15.875C15.0356 15.875 15.875 15.0356 15.875 14C15.875 12.9644 15.0356 12.125 14 12.125C12.9644 12.125 12.125 12.9644 12.125 14C12.125 15.0356 12.9644 15.875 14 15.875Z" fill="white"/>
<path fill-rule="evenodd" clip-rule="evenodd" d="M7.75 13.75C7.75 11.6498 7.75 10.5997 8.15873 9.79754C8.51825 9.09193 9.09193 8.51825 9.79754 8.15873C10.5997 7.75 11.6498 7.75 13.75 7.75H14.25C16.3502 7.75 17.4003 7.75 18.2024 8.15873C18.9081 8.51825 19.4818 9.09193 19.8413 9.79754C20.25 10.5997 20.25 11.6498 20.25 13.75V14.25C20.25 16.3502 20.25 17.4003 19.8413 18.2024C19.4818 18.9081 18.9081 19.4818 18.2024 19.8413C17.4003 20.25 16.3502 20.25 14.25 20.25H13.75C11.6498 20.25 10.5997 20.25 9.79754 19.8413C9.09193 19.4818 8.51825 18.9081 8.15873 18.2024C7.75 17.4003 7.75 16.3502 7.75 14.25V13.75ZM13.75 9H14.25C15.3207 9 16.0486 9.00097 16.6112 9.04694C17.1593 9.09171 17.4395 9.17287 17.635 9.27248C18.1054 9.51217 18.4878 9.89462 18.7275 10.365C18.8271 10.5605 18.9083 10.8407 18.9531 11.3888C18.999 11.9514 19 12.6793 19 13.75V14.25C19 15.3207 18.999 16.0486 18.9531 16.6112C18.9083 17.1593 18.8271 17.4395 18.7275 17.635C18.4878 18.1054 18.1054 18.4878 17.635 18.7275C17.4395 18.8271 17.1593 18.9083 16.6112 18.9531C16.0486 18.999 15.3207 19 14.25 19H13.75C12.6793 19 11.9514 18.999 11.3888 18.9531C10.8407 18.9083 10.5605 18.8271 10.365 18.7275C9.89462 18.4878 9.51217 18.1054 9.27248 17.635C9.17287 17.4395 9.09171 17.1593 9.04694 16.6112C9.00097 16.0486 9 15.3207 9 14.25V13.75C9 12.6793 9.00097 11.9514 9.04694 11.3888C9.09171 10.8407 9.17287 10.5605 9.27248 10.365C9.51217 9.89462 9.89462 9.51217 10.365 9.27248C10.5605 9.17287 10.8407 9.09171 11.3888 9.04694C11.9514 9.00097 12.6793 9 13.75 9Z" fill="white"/>
<defs>
<radialGradient id="paint0_radial_56_836" cx="0" cy="0" r="1" gradientUnits="userSpaceOnUse" gradientTransform="translate(11.5 18.375) rotate(-55.3758) scale(15.9498)">
<stop stop-color="#B13589"/>
<stop offset="0.79309" stop-color="#C62F94"/>
<stop offset="1" stop-color="#8A3AC8"/>
</radialGradient>
<radialGradient id="paint1_radial_56_836" cx="0" cy="0" r="1" gradientUnits="userSpaceOnUse" gradientTransform="translate(10.875 23.375) rotate(-65.1363) scale(14.1214)">
<stop stop-color="#E0E8B7"/>
<stop offset="0.444662" stop-color="#FB8A2E"/>
<stop offset="0.71474" stop-color="#E2425C"/>
<stop offset="1" stop-color="#E2425C" stop-opacity="0"/>
</radialGradient>
<radialGradient id="paint2_radial_56_836" cx="0" cy="0" r="1" gradientUnits="userSpaceOnUse" gradientTransform="translate(4.3125 5.875) rotate(-8.1301) scale(24.3068 5.19897)">
<stop offset="0.156701" stop-color="#406ADC"/>
<stop offset="0.467799" stop-color="#6A45BE"/>
<stop offset="1" stop-color="#6A45BE" stop-opacity="0"/>
</radialGradient>
</defs>
</svg>
