<svg width="63" height="63" viewBox="0 0 63 63" fill="none" xmlns="http://www.w3.org/2000/svg">
<g clip-path="url(#clip0_11_560)">
<path d="M0 0H63V63H0V0Z" fill="#F0DB4F"/>
<path d="M57.8438 47.9747C57.3827 45.1001 55.5083 42.6867 49.9568 40.435C48.0285 39.5487 45.8786 38.914 45.2378 37.4527C45.0103 36.6023 44.9803 36.1232 45.124 35.6082C45.5373 33.9374 47.5315 33.4164 49.1124 33.8955C50.1305 34.2368 51.0947 35.0214 51.6756 36.273C54.3944 34.5124 54.3884 34.5243 56.2868 33.3147C55.5921 32.2367 55.2208 31.7396 54.7657 31.2785C53.1308 29.452 50.903 28.5118 47.3398 28.5837C46.723 28.6615 46.1002 28.7453 45.4834 28.8232C43.7048 29.2724 42.01 30.2066 41.0159 31.4582C38.0336 34.8417 38.8839 40.7644 42.513 43.2018C46.0882 45.8847 51.3402 46.4955 52.0109 49.0048C52.6637 52.0769 49.7533 53.071 46.8607 52.7177C44.7288 52.2745 43.5431 51.1906 42.2615 49.2204C39.9021 50.5858 39.9021 50.5858 37.4767 51.9811C38.0516 53.2387 38.6564 53.8076 39.6206 54.8975C44.1839 59.5267 55.6041 59.2992 57.6522 52.2925C57.736 52.0529 58.287 50.448 57.8438 47.9747ZM34.2488 28.9549H28.356C28.356 34.0452 28.3321 39.0996 28.3321 44.1899C28.3321 47.4297 28.4998 50.4001 27.9728 51.3103C27.1104 53.1008 24.8767 52.8793 23.8586 52.5319C22.8226 52.0229 22.2956 51.2983 21.6848 50.2743C21.5171 49.9808 21.3913 49.7533 21.3493 49.7353C19.7504 50.7115 18.1574 51.6935 16.5585 52.6697C17.355 54.3046 18.5287 55.7239 20.0318 56.6461C22.2776 57.9935 25.2958 58.4067 28.4519 57.6821C30.506 57.0833 32.2785 55.8437 33.2067 53.9573C34.5482 51.484 34.2607 48.4897 34.2488 45.178C34.2787 39.7763 34.2488 34.3746 34.2488 28.9549Z" fill="#444444"/>
</g>
<defs>
<clipPath id="clip0_11_560">
<rect width="63" height="63" fill="white"/>
</clipPath>
</defs>
</svg>
