
<svg width="66" height="66" viewBox="0 0 66 66" fill="none" xmlns="http://www.w3.org/2000/svg">
<circle cx="32.7468" cy="32.7468" r="32.7468" fill="white"/>
<g clip-path="url(#clip0_71_50)">
<path fill-rule="evenodd" clip-rule="evenodd" d="M51.4593 47.4191H43.1879V35.4588C43.1879 32.3282 41.8941 30.191 39.0489 30.191C36.8727 30.191 35.6624 31.6332 35.0991 33.0232C34.8879 33.5221 34.9209 34.217 34.9209 34.912V47.4191H26.7265C26.7265 47.4191 26.8321 26.2326 26.7265 24.3067H34.9209V27.934C35.405 26.3481 38.0235 24.0845 42.2021 24.0845C47.3863 24.0845 51.4593 27.409 51.4593 34.5678V47.4191ZM18.4397 21.4158H18.3869C15.7464 21.4158 14.0344 19.649 14.0344 17.4094C14.0344 15.1263 15.797 13.3965 18.4903 13.3965C21.1814 13.3965 22.8361 15.1219 22.8889 17.4029C22.8889 19.6424 21.1814 21.4158 18.4397 21.4158ZM14.9784 24.3067H22.2728V47.4191H14.9784V24.3067Z" fill="#007EBB"/>
</g>
<defs>
<clipPath id="clip0_71_50">
<rect width="37.4249" height="37.4249" fill="white" transform="translate(14.0344 11.6953)"/>
</clipPath>
</defs>
</svg>
