<svg width="28" height="28" viewBox="0 0 28 28" fill="none" xmlns="http://www.w3.org/2000/svg">
<circle cx="14" cy="14" r="14" fill="white"/>
<g clip-path="url(#clip0_56_840)">
<path fill-rule="evenodd" clip-rule="evenodd" d="M22 20.2727H18.4638V15.1594C18.4638 13.821 17.9106 12.9073 16.6943 12.9073C15.7639 12.9073 15.2465 13.5239 15.0056 14.1182C14.9153 14.3314 14.9294 14.6285 14.9294 14.9257V20.2727H11.4262C11.4262 20.2727 11.4713 11.215 11.4262 10.3917H14.9294V11.9424C15.1364 11.2644 16.2559 10.2967 18.0423 10.2967C20.2587 10.2967 22 11.718 22 14.7785V20.2727ZM7.88335 9.15573H7.86077C6.73189 9.15573 6 8.40037 6 7.4429C6 6.46681 6.75353 5.72729 7.90498 5.72729C9.0555 5.72729 9.76293 6.46496 9.78551 7.44012C9.78551 8.39758 9.0555 9.15573 7.88335 9.15573ZM6.40356 10.3917H9.52211V20.2727H6.40356V10.3917Z" fill="#007EBB"/>
</g>
<defs>
<clipPath id="clip0_56_840">
<rect width="16" height="16" fill="white" transform="translate(6 5)"/>
</clipPath>
</defs>
</svg>
