<svg width="63" height="63" viewBox="0 0 63 63" fill="none" xmlns="http://www.w3.org/2000/svg">
<g clip-path="url(#clip0_11_577)">
<path d="M31.5 63C48.897 63 63 48.897 63 31.5C63 14.103 48.897 0 31.5 0C14.103 0 0 14.103 0 31.5C0 48.897 14.103 63 31.5 63Z" fill="#13AA52"/>
<path d="M39.9201 27.6511C37.9304 18.8699 33.2282 15.9826 32.7219 14.8794C32.1681 14.1012 31.607 12.7169 31.607 12.7169C31.5978 12.6935 31.5831 12.6523 31.5658 12.6123C31.5086 13.3906 31.4791 13.6908 30.7433 14.4758C29.6038 15.3667 23.7579 20.272 23.2823 30.2486C22.8387 39.5534 30.0037 45.0979 30.9727 45.8048L31.0829 45.8829V45.8762C31.089 45.9229 31.3905 48.091 31.6021 50.3883H32.3613C32.5395 48.7644 32.8065 47.1515 33.1611 45.5569L33.2227 45.5169C33.6561 45.2061 34.0693 44.8681 34.4599 44.5048L34.5042 44.4648C36.564 42.5619 40.2671 38.1605 40.2308 31.1432C40.2231 29.9726 40.1192 28.8046 39.9201 27.6511ZM31.5215 40.5513C31.5215 40.5513 31.5215 27.501 31.9522 27.5034C32.2881 27.5034 32.7231 44.3369 32.7231 44.3369C32.1251 44.2649 31.5215 41.5665 31.5215 40.5513Z" fill="white"/>
</g>
<defs>
<clipPath id="clip0_11_577">
<rect width="63" height="63" fill="white"/>
</clipPath>
</defs>
</svg>
