<svg width="65" height="65" viewBox="0 0 65 65" fill="none" xmlns="http://www.w3.org/2000/svg">
<g clip-path="url(#clip0_10_514)">
<path d="M30.3715 0.0174917C30.2317 0.0301976 29.7869 0.0746681 29.3866 0.106433C20.1544 0.938666 11.5068 5.91936 6.02981 13.5746C2.97996 17.8311 1.02933 22.6593 0.292278 27.7734C0.0317693 29.5586 0 30.0859 0 32.5064C0 34.9268 0.0317693 35.4541 0.292278 37.2393C2.05865 49.4433 10.7444 59.6969 22.5244 63.4959C24.6339 64.1757 26.8578 64.6395 29.3866 64.919C30.3715 65.027 34.6285 65.027 35.6134 64.919C39.9785 64.4362 43.6764 63.3562 47.3236 61.4948C47.8827 61.2089 47.9907 61.1327 47.9145 61.0691C47.8636 61.031 45.4809 57.8355 42.6217 53.9729L37.4242 46.9529L30.9115 37.3155C27.328 32.0172 24.3798 27.6845 24.3543 27.6845C24.3289 27.6781 24.3035 31.96 24.2908 37.1885C24.2717 46.343 24.2654 46.7115 24.151 46.9275C23.9858 47.2388 23.8587 47.3659 23.5919 47.5056C23.3886 47.6073 23.2107 47.6263 22.2512 47.6263H21.152L20.8597 47.4421C20.6691 47.3214 20.5293 47.1626 20.434 46.9783L20.3006 46.6925L20.3133 33.9548L20.3324 21.2109L20.5293 20.9631C20.631 20.8297 20.847 20.6582 20.9995 20.5756C21.26 20.4485 21.3617 20.4358 22.4609 20.4358C23.7571 20.4358 23.9731 20.4866 24.3099 20.8551C24.4052 20.9567 27.9316 26.2678 32.1505 32.6652C36.3695 39.0626 42.1388 47.7979 44.9726 52.0861L50.1193 59.8811L50.3798 59.7096C52.6862 58.2103 55.1261 56.0757 57.0577 53.8522C61.1686 49.132 63.8182 43.3762 64.7077 37.2393C64.9682 35.4541 65 34.9268 65 32.5064C65 30.0859 64.9682 29.5586 64.7077 27.7734C62.9413 15.5695 54.2556 5.31583 42.4756 1.51678C40.3978 0.843372 38.1867 0.379609 35.7087 0.10008C35.0987 0.0365505 30.8988 -0.0333317 30.3715 0.0174917ZM43.6764 19.6734C43.9814 19.8259 44.2292 20.1182 44.3182 20.4231C44.369 20.5883 44.3817 24.1205 44.369 32.0807L44.35 43.5033L42.3358 40.4158L40.3152 37.3282V29.025C40.3152 23.6567 40.3407 20.6391 40.3788 20.493C40.4804 20.1372 40.7028 19.8577 41.0078 19.6925C41.2683 19.5591 41.3636 19.5464 42.3612 19.5464C43.3016 19.5464 43.4668 19.5591 43.6764 19.6734Z" fill="black"/>
</g>
<defs>
<clipPath id="clip0_10_514">
<rect width="65" height="65" fill="white"/>
</clipPath>
</defs>
</svg>
