<svg width="63" height="63" viewBox="0 0 63 63" fill="none" xmlns="http://www.w3.org/2000/svg">
<path d="M61.8087 37.7249C61.4424 36.6157 60.4829 35.843 59.2419 35.6574C58.6568 35.5701 57.9866 35.6074 57.1937 35.7709C55.8116 36.056 54.7862 36.1645 54.0379 36.1857C56.8625 31.4165 59.1594 25.9778 60.4816 20.8583C62.6197 12.5805 61.4772 8.80933 60.142 7.10344C56.6086 2.58863 51.4534 0.163057 45.2339 0.0887043C41.9164 0.0482122 39.0036 0.703282 37.4844 1.17423C36.0697 0.924789 34.5485 0.785395 32.9524 0.759576C29.9609 0.711888 27.3175 1.36399 25.0588 2.70433C23.8081 2.28163 21.8014 1.68553 19.4837 1.30502C14.0327 0.410102 9.63948 1.1075 6.42607 3.3776C2.53487 6.12626 0.730928 10.9018 1.0646 17.5717C1.17042 19.6894 2.35513 26.1325 4.22031 32.2431C5.29229 35.7552 6.43538 38.6719 7.61783 40.9127C9.29466 44.0901 11.0889 45.9613 13.1032 46.6332C14.2323 47.0095 16.2836 47.2728 18.4412 45.4761C18.7147 45.8071 19.0794 46.1363 19.5637 46.4419C20.1786 46.8297 20.9306 47.1466 21.6814 47.3344C24.3879 48.0111 26.923 47.8418 29.0857 46.8935C29.099 47.2781 29.1093 47.6456 29.118 47.963C29.1324 48.4778 29.1465 48.9825 29.1654 49.4544C29.2935 52.6461 29.5107 55.1277 30.154 56.8639C30.1893 56.9595 30.2368 57.105 30.2871 57.2592C30.6079 58.242 31.1447 59.8871 32.51 61.1757C33.9242 62.5102 35.6344 62.9196 37.2008 62.9195C37.9864 62.9195 38.736 62.8165 39.3933 62.6756C41.7369 62.1734 44.3984 61.4082 46.3236 58.6668C48.1438 56.0752 49.0287 52.1719 49.1889 46.0213C49.2096 45.8475 49.2288 45.6814 49.2473 45.5231C49.2597 45.4163 49.2724 45.3071 49.2852 45.1982L49.7141 45.2359L49.8246 45.2434C52.2115 45.3521 55.13 44.8459 56.9224 44.0133C58.3388 43.356 62.8773 40.9601 61.8087 37.7249Z" fill="black"/>
<path d="M57.7275 38.3542C50.6305 39.8182 50.1426 37.4153 50.1426 37.4153C57.6359 26.2965 60.7683 12.1828 58.0651 8.72853C50.6904 -0.694001 37.9246 3.76225 37.7115 3.87794L37.6429 3.89022C36.2408 3.59915 34.6716 3.42576 32.908 3.39697C29.6968 3.34435 27.2609 4.23884 25.4125 5.64055C25.4125 5.64055 2.63941 -3.74107 3.69855 17.4397C3.92387 21.9458 10.157 51.5345 17.5916 42.5973C20.3089 39.3293 22.9344 36.5661 22.9344 36.5661C24.2385 37.4324 25.7996 37.8743 27.4362 37.7155L27.5634 37.6076C27.5239 38.0134 27.5419 38.4102 27.6143 38.8801C25.699 41.0199 26.2618 41.3957 22.4331 42.1838C18.559 42.9822 20.8349 44.4036 22.3208 44.7751C24.1222 45.2256 28.2898 45.8638 31.1058 41.9218L30.9935 42.3716C31.7439 42.9726 32.2709 46.2812 32.1826 49.2805C32.0943 52.2799 32.0353 54.339 32.6266 55.9474C33.2179 57.5558 33.8072 61.1747 38.8404 60.0962C43.046 59.195 45.2254 56.8594 45.5286 52.9636C45.7438 50.1939 46.2307 50.6033 46.2614 48.1271L46.6519 46.9548C47.1023 43.2003 46.7235 41.9891 49.3145 42.5524L49.9442 42.6077C51.8513 42.6945 54.3473 42.301 55.8122 41.6201C58.9666 40.1562 60.8375 37.712 57.7272 38.3542H57.7275Z" fill="#336791"/>
<path d="M26.7455 19.4548C26.1061 19.3658 25.5268 19.4482 25.2337 19.67C25.0688 19.7948 25.0179 19.9394 25.0042 20.0391C24.9674 20.3027 25.1522 20.5942 25.2656 20.7446C25.5867 21.1703 26.056 21.4629 26.5205 21.5274C26.5878 21.5367 26.6546 21.5412 26.7212 21.5412C27.4958 21.5412 28.1998 20.9382 28.2619 20.4931C28.3395 19.9356 27.5302 19.564 26.7455 19.4548Z" fill="white"/>
<path d="M47.9326 19.4724C47.8717 19.0354 47.0939 18.9109 46.356 19.0134C45.6192 19.1161 44.9046 19.4487 44.9643 19.8866C45.0122 20.2272 45.627 20.8086 46.355 20.8085C46.4164 20.8085 46.4784 20.8044 46.5409 20.7956C47.0268 20.7283 47.3834 20.4198 47.5527 20.2419C47.8107 19.971 47.9599 19.6688 47.9326 19.4724Z" fill="white"/>
<path d="M60.0891 38.1879C59.8185 37.3695 58.9476 37.1061 57.5005 37.4051C53.2038 38.2918 51.6651 37.6775 51.1597 37.3055C54.4995 32.2176 57.2469 26.0677 58.729 20.3296C59.4312 17.6115 59.8191 15.0873 59.8507 13.03C59.8857 10.7714 59.5012 9.11211 58.7079 8.0984C55.5096 4.01166 50.8157 1.81958 45.1337 1.75934C41.2276 1.71546 37.9272 2.7152 37.2874 2.99625C35.94 2.66117 34.4712 2.45546 32.8722 2.42922C29.9397 2.38181 27.4051 3.08387 25.3064 4.51477C24.3948 4.1756 22.0389 3.36689 19.1581 2.90285C14.1771 2.10077 10.2192 2.70843 7.39462 4.70948C4.02432 7.09724 2.46841 11.3654 2.76991 17.3952C2.87136 19.4241 4.02715 25.6648 5.85141 31.6415C8.25258 39.5079 10.8626 43.9612 13.609 44.8771C13.9304 44.9843 14.3011 45.0594 14.7097 45.0594C15.7116 45.0594 16.9398 44.6078 18.2177 43.0715C20.3404 40.5178 22.3222 38.3779 23.0528 37.6004C24.1324 38.18 25.3182 38.5035 26.5315 38.5359C26.5336 38.5677 26.5368 38.5994 26.5396 38.631C26.2963 38.9197 26.0966 39.1726 25.9265 39.3887C25.086 40.4556 24.9111 40.6776 22.2056 41.2348C21.4361 41.3935 19.3919 41.8148 19.3621 43.2475C19.3295 44.8129 21.7781 45.4704 22.0571 45.5401C23.0294 45.7834 23.9659 45.9035 24.8591 45.9035C27.0316 45.9034 28.9432 45.1895 30.471 43.8081C30.4239 49.3888 30.6567 54.888 31.3267 56.5635C31.8754 57.935 33.2162 61.2873 37.4512 61.287C38.0724 61.287 38.7565 61.2148 39.509 61.0535C43.9287 60.1058 45.8479 58.1525 46.5904 53.8459C46.9877 51.5443 47.6696 46.0481 47.9902 43.1001C48.667 43.3112 49.5383 43.4078 50.4802 43.4077C52.4447 43.4077 54.7114 42.9903 56.133 42.3305C57.7299 41.5889 60.6117 39.7689 60.0891 38.1879ZM49.5639 18.2663C49.5492 19.1367 49.4294 19.9268 49.3024 20.7516C49.1658 21.6386 49.0245 22.5556 48.9889 23.669C48.9538 24.7524 49.0891 25.8788 49.22 26.968C49.4844 29.1681 49.7557 31.4333 48.7053 33.6684C48.5421 33.3785 48.3845 33.0621 48.24 32.7118C48.1095 32.3954 47.8261 31.887 47.4337 31.1834C45.9066 28.4449 42.3306 22.0319 44.1612 19.415C44.7064 18.6359 46.0901 17.8353 49.5639 18.2663ZM45.3534 3.5218C50.4444 3.63425 54.4714 5.53879 57.3228 9.18223C59.5097 11.9769 57.1016 24.6931 50.1303 35.6634C50.0615 35.5759 49.9914 35.4876 49.9188 35.397C49.8899 35.3607 49.8604 35.3239 49.8307 35.2867C51.6321 32.3116 51.2798 29.3681 50.9663 26.7582C50.8375 25.6872 50.7158 24.6756 50.7467 23.7255C50.7788 22.7182 50.9119 21.8546 51.0406 21.0193C51.1991 19.99 51.36 18.925 51.3156 17.6695C51.3488 17.5379 51.3622 17.3822 51.3448 17.1976C51.2314 15.9935 49.8569 12.3906 47.0552 9.12904C45.5228 7.34541 43.2879 5.34917 40.2364 4.00277C41.549 3.73075 43.3439 3.47708 45.3534 3.5218ZM16.8654 41.947C15.4575 43.6398 14.4851 43.3154 14.1654 43.2089C12.082 42.5139 9.66472 38.1107 7.53345 31.1281C5.6893 25.0863 4.61153 19.011 4.52631 17.3073C4.25698 11.9195 5.56302 8.16443 8.40834 6.14659C13.0388 2.86278 20.6519 4.82827 23.711 5.8252C23.667 5.86851 23.6212 5.90914 23.5776 5.95316C18.5579 11.0229 18.677 19.6845 18.6892 20.2139C18.6888 20.4182 18.7059 20.7074 18.7295 21.1053C18.8158 22.562 18.9765 25.2734 18.5472 28.344C18.148 31.1974 19.0276 33.9902 20.9599 36.0064C21.16 36.215 21.3688 36.411 21.5845 36.5954C20.7243 37.5166 18.855 39.5534 16.8654 41.947ZM22.2297 34.7895C20.6722 33.1646 19.965 30.9042 20.2889 28.5876C20.7424 25.3438 20.5749 22.5188 20.485 21.0011C20.4724 20.7888 20.4613 20.6027 20.4547 20.4558C21.188 19.8057 24.5864 17.9847 27.0099 18.54C28.116 18.7934 28.7897 19.5464 29.0699 20.8419C30.52 27.5482 29.2619 30.3434 28.251 32.5895C28.0426 33.0523 27.8458 33.4896 27.6777 33.9423L27.5474 34.292C27.2176 35.1765 26.9107 35.9987 26.7205 36.7797C25.065 36.7746 23.4543 36.0675 22.2297 34.7895ZM22.4838 43.8339C22.0004 43.7131 21.5656 43.5033 21.3105 43.3294C21.5236 43.2291 21.9028 43.0928 22.5604 42.9573C25.7432 42.302 26.2346 41.8396 27.308 40.4767C27.5542 40.1644 27.8331 39.8101 28.2194 39.3786L28.2198 39.3781C28.7953 38.7339 29.0585 38.8431 29.5358 39.041C29.9226 39.2011 30.2993 39.6859 30.4521 40.2195C30.5244 40.4715 30.6056 40.9499 30.34 41.322C28.0977 44.4615 24.8304 44.4211 22.4838 43.8339ZM39.1403 59.3339C35.2467 60.1682 33.8681 58.1815 32.9597 55.9104C32.3733 54.4441 32.0852 47.8323 32.2897 40.5309C32.2923 40.4337 32.2785 40.3399 32.2517 40.2517C32.2284 40.0814 32.1926 39.9091 32.1429 39.7357C31.8387 38.6733 31.0979 37.7846 30.209 37.4162C29.8559 37.2699 29.2076 37.0015 28.4287 37.2007C28.5949 36.5163 28.883 35.7435 29.1952 34.9066L29.3263 34.5544C29.4738 34.1576 29.6588 33.7464 29.8546 33.3113C30.9125 30.9611 32.3613 27.7422 30.7889 20.4701C30.1999 17.7464 28.2331 16.4164 25.2515 16.7252C23.4639 16.9102 21.8287 17.6314 21.0131 18.0449C20.8377 18.1338 20.6773 18.2196 20.5275 18.3033C20.755 15.5588 21.6153 10.4302 24.8326 7.18528C26.8582 5.14233 29.5561 4.13342 32.8431 4.18773C39.3198 4.29383 43.473 7.61757 45.8169 10.3873C47.8365 12.774 48.9302 15.1782 49.3668 16.4748C46.0844 16.1411 43.8519 16.7891 42.7201 18.407C40.2581 21.9262 44.0671 28.7571 45.8977 32.04C46.2333 32.6417 46.5231 33.1616 46.6143 33.3826C47.2104 34.8273 47.9821 35.7918 48.5456 36.4959C48.7183 36.7117 48.8859 36.9209 49.0133 37.1036C48.0192 37.3903 46.2335 38.0524 46.3962 41.3625C46.2649 43.0235 45.3315 50.7997 44.8575 53.5471C44.2316 57.1767 42.8959 58.5287 39.1403 59.3339ZM55.3925 40.7353C54.3759 41.2073 52.6747 41.5613 51.0585 41.6372C49.2735 41.7208 48.3649 41.4372 48.1511 41.2629C48.0507 39.2002 48.8186 38.9846 49.6312 38.7564C49.7588 38.7205 49.8834 38.6856 50.0036 38.6436C50.0784 38.7044 50.1602 38.7648 50.2498 38.8239C51.6845 39.7709 54.2436 39.873 57.8561 39.1274C57.8694 39.1245 57.8827 39.122 57.8958 39.1193C57.4086 39.5749 56.5748 40.1864 55.3925 40.7353Z" fill="white"/>
</svg>
