<svg width="68" height="68" viewBox="0 0 68 68" fill="none" xmlns="http://www.w3.org/2000/svg">
<path fill-rule="evenodd" clip-rule="evenodd" d="M53.5712 51.4463L27.0704 59.347C26.8857 59.403 26.6897 59.4101 26.5015 59.3677C26.3133 59.3253 26.1393 59.2348 25.9965 59.1051C25.8537 58.9754 25.747 58.8108 25.6868 58.6275C25.6266 58.4442 25.6149 58.2484 25.653 58.0593L35.122 12.3484C35.162 12.1617 35.2596 11.9922 35.4009 11.8638C35.5422 11.7353 35.7203 11.6544 35.91 11.6324C36.0997 11.6103 36.2915 11.6483 36.4585 11.7409C36.6255 11.8335 36.7593 11.9761 36.8411 12.1486L54.3702 49.6783C54.4488 49.8451 54.4903 50.0271 54.4917 50.2115C54.4932 50.396 54.4546 50.5785 54.3786 50.7466C54.3027 50.9147 54.1911 51.0643 54.0518 51.1851C53.9124 51.3059 53.7484 51.395 53.5712 51.4463ZM58.1166 49.5805L37.825 6.12639C37.5756 5.59041 37.1848 5.13253 36.6947 4.80194C36.2046 4.47135 35.6337 4.28054 35.0434 4.25001C34.4529 4.2094 33.8628 4.33255 33.3378 4.60588C32.8129 4.87921 32.3736 5.29213 32.0684 5.79914L10.064 41.752C9.72832 42.2962 9.55375 42.9244 9.56052 43.5638C9.56729 44.2032 9.75512 44.8275 10.1022 45.3645L20.8632 62.1711C21.2687 62.7992 21.8668 63.2791 22.5678 63.5388C23.2688 63.7985 24.0352 63.8242 24.752 63.6119L55.9895 54.298C56.4613 54.1606 56.8977 53.9225 57.2686 53.6002C57.6396 53.278 57.9362 52.8791 58.1382 52.4311C58.3402 51.9831 58.4426 51.4967 58.4385 51.0053C58.4345 50.514 58.3239 50.0293 58.1145 49.5848L58.1166 49.5805Z" fill="#0C344B"/>
</svg>
