<svg width="63" height="57" viewBox="0 0 63 57" fill="none" xmlns="http://www.w3.org/2000/svg">
<g clip-path="url(#clip0_10_498)">
<path d="M31.5 34.5318C34.8137 34.5318 37.5 31.8313 37.5 28.5C37.5 25.1688 34.8137 22.4683 31.5 22.4683C28.1863 22.4683 25.5 25.1688 25.5 28.5C25.5 31.8313 28.1863 34.5318 31.5 34.5318Z" fill="#407BFF"/>
<path d="M31.5 42.0714C48.0685 42.0714 61.5 35.9953 61.5 28.5C61.5 21.0047 48.0685 14.9286 31.5 14.9286C14.9315 14.9286 1.5 21.0047 1.5 28.5C1.5 35.9953 14.9315 42.0714 31.5 42.0714Z" stroke="#407BFF"/>
<path d="M19.8087 35.2857C28.0929 49.7104 40.0431 58.3659 46.5 54.6182C52.957 50.8706 51.4756 36.139 43.1913 21.7143C34.9071 7.2896 22.957 -1.36586 16.5 2.38178C10.0431 6.12943 11.5244 20.861 19.8087 35.2857Z" stroke="#407BFF"/>
<path d="M19.8087 21.7143C11.5244 36.139 10.0431 50.8706 16.5 54.6182C22.957 58.3659 34.9071 49.7104 43.1913 35.2857C51.4756 20.861 52.957 6.12941 46.5 2.38177C40.0431 -1.36588 28.0929 7.28958 19.8087 21.7143Z" stroke="#407BFF"/>
</g>
<defs>
<clipPath id="clip0_10_498">
<rect width="63" height="57" fill="white"/>
</clipPath>
</defs>
</svg>
