<svg width="65" height="65" viewBox="0 0 65 65" fill="none" xmlns="http://www.w3.org/2000/svg">
<path d="M42.64 42.51C44.525 42.315 45.955 40.69 45.89 38.74C45.825 36.79 44.2 35.23 42.25 35.23H42.12C40.105 35.295 38.545 36.985 38.61 39C38.675 39.975 39.065 40.82 39.65 41.405C37.44 45.76 34.06 48.945 28.99 51.61C25.545 53.43 21.97 54.08 18.395 53.625C15.47 53.235 13.195 51.935 11.765 49.79C9.685 46.605 9.49 43.16 11.245 39.715C12.48 37.245 14.43 35.425 15.665 34.515C15.405 33.67 15.015 32.24 14.82 31.2C5.395 38.025 6.37 47.255 9.23 51.61C11.375 54.86 15.73 56.875 20.54 56.875C21.84 56.875 23.14 56.745 24.44 56.42C32.76 54.795 39.065 49.855 42.64 42.51Z" fill="#764ABC"/>
<path d="M54.08 34.45C49.14 28.665 41.86 25.48 33.54 25.48H32.5C31.915 24.31 30.68 23.53 29.315 23.53H29.185C27.17 23.595 25.61 25.285 25.675 27.3C25.74 29.25 27.365 30.81 29.315 30.81H29.445C30.875 30.745 32.11 29.835 32.63 28.6H33.8C38.74 28.6 43.42 30.03 47.645 32.825C50.895 34.97 53.235 37.765 54.535 41.145C55.64 43.875 55.575 46.54 54.405 48.815C52.585 52.26 49.53 54.145 45.5 54.145C42.9 54.145 40.43 53.365 39.13 52.78C38.415 53.43 37.115 54.47 36.205 55.12C39 56.42 41.86 57.135 44.59 57.135C50.83 57.135 55.445 53.69 57.2 50.245C59.085 46.475 58.955 39.975 54.08 34.45Z" fill="#764ABC"/>
<path d="M21.06 43.615C21.125 45.565 22.75 47.125 24.7 47.125H24.83C26.845 47.06 28.405 45.37 28.34 43.355C28.275 41.405 26.65 39.845 24.7 39.845H24.57C24.44 39.845 24.245 39.845 24.115 39.91C21.45 35.49 20.345 30.68 20.735 25.48C20.995 21.58 22.295 18.2 24.57 15.405C26.455 13 30.095 11.83 32.565 11.765C39.455 11.635 42.38 20.215 42.575 23.66C43.42 23.855 44.85 24.31 45.825 24.635C45.045 14.105 38.545 8.64502 32.305 8.64502C26.455 8.64502 21.06 12.87 18.915 19.11C15.925 27.43 17.875 35.425 21.515 41.73C21.19 42.185 20.995 42.9 21.06 43.615Z" fill="#764ABC"/>
</svg>
