<svg width="28" height="28" viewBox="0 0 28 28" fill="none" xmlns="http://www.w3.org/2000/svg">
<circle cx="14" cy="14" r="14" fill="white"/>
<g clip-path="url(#clip0_56_838)">
<path fill-rule="evenodd" clip-rule="evenodd" d="M24 8.63966C23.2651 8.97432 22.4739 9.20064 21.644 9.30176C22.4915 8.78171 23.1419 7.95711 23.4483 6.9748C22.6547 7.45632 21.7778 7.80663 20.841 7.99442C20.0944 7.17704 19.0273 6.66663 17.8463 6.66663C15.5819 6.66663 13.7447 8.55058 13.7447 10.8739C13.7447 11.2038 13.7799 11.524 13.8503 11.8322C10.4401 11.6564 7.41727 9.9831 5.39226 7.43465C5.03891 8.05822 4.837 8.78171 4.837 9.55215C4.837 11.0112 5.56131 12.2992 6.66244 13.054C5.99096 13.0335 5.35704 12.8421 4.80296 12.5292V12.5809C4.80296 14.6202 6.21752 16.3211 8.09579 16.7063C7.75183 16.8051 7.38909 16.8544 7.01462 16.8544C6.75048 16.8544 6.49222 16.8291 6.24218 16.7798C6.76457 18.4507 8.27892 19.6677 10.075 19.7002C8.671 20.8294 6.90074 21.5023 4.97904 21.5023C4.648 21.5023 4.32048 21.483 4 21.4445C5.81605 22.6363 7.9737 23.3333 10.2898 23.3333C17.8381 23.3333 21.9644 16.923 21.9644 11.3627C21.9644 11.1797 21.9609 10.9967 21.9539 10.8173C22.7556 10.2239 23.4518 9.48353 24 8.63966Z" fill="#00AAEC"/>
</g>
<defs>
<clipPath id="clip0_56_838">
<rect width="20" height="20" fill="white" transform="translate(4 5)"/>
</clipPath>
</defs>
</svg>
