
<svg width="66" height="66" viewBox="0 0 66 66" fill="none" xmlns="http://www.w3.org/2000/svg">
<circle cx="32.7468" cy="32.7468" r="32.7468" fill="white"/>
<g clip-path="url(#clip0_71_60)">
<path fill-rule="evenodd" clip-rule="evenodd" d="M56.1373 20.2088C54.4184 20.9916 52.5677 21.5209 50.6264 21.7575C52.6089 20.5411 54.1301 18.6123 54.8467 16.3146C52.9905 17.4409 50.9394 18.2603 48.7482 18.6995C47.0019 16.7876 44.5059 15.5938 41.7435 15.5938C36.4468 15.5938 32.1495 20.0004 32.1495 25.4348C32.1495 26.2064 32.2319 26.9554 32.3967 27.6762C24.4199 27.2651 17.3494 23.3512 12.6128 17.3902C11.7863 18.8488 11.314 20.5411 11.314 22.3431C11.314 25.7558 13.0082 28.7687 15.5838 30.5342C14.0132 30.4863 12.5304 30.0386 11.2344 29.3065V29.4276C11.2344 34.1975 14.5431 38.1762 18.9365 39.0772C18.1319 39.3081 17.2835 39.4236 16.4076 39.4236C15.7897 39.4236 15.1856 39.3644 14.6008 39.249C15.8227 43.1573 19.3648 46.004 23.566 46.08C20.2819 48.7212 16.1412 50.2952 11.6462 50.2952C10.8719 50.2952 10.1058 50.2502 9.3562 50.1601C13.604 52.9477 18.6509 54.578 24.0685 54.578C41.7243 54.578 51.376 39.5841 51.376 26.578C51.376 26.15 51.3677 25.722 51.3513 25.3025C53.2267 23.9143 54.855 22.1826 56.1373 20.2088Z" fill="#00AAEC"/>
</g>
<defs>
<clipPath id="clip0_71_60">
<rect width="46.7811" height="46.7811" fill="white" transform="translate(9.3562 11.6953)"/>
</clipPath>
</defs>
</svg>
