<svg width="28" height="28" viewBox="0 0 28 28" fill="none" xmlns="http://www.w3.org/2000/svg">
<circle cx="14" cy="14" r="14" fill="white"/>
<g clip-path="url(#clip0_56_837)">
<path fill-rule="evenodd" clip-rule="evenodd" d="M13.9971 4C8.48428 4 4 8.48553 4 13.9999C4 16.1868 4.70527 18.215 5.90417 19.8612L4.65816 23.5766L8.50185 22.3481C10.0827 23.3946 11.9693 24 14.0029 24C19.5157 24 24 19.5143 24 14.0001C24 8.48571 19.5157 4.00017 14.0029 4.00017L13.9971 4ZM11.2054 9.07951C11.0115 8.61511 10.8645 8.59753 10.5707 8.58558C10.4707 8.57978 10.3593 8.57397 10.2357 8.57397C9.85352 8.57397 9.45394 8.68563 9.21294 8.93252C8.91918 9.23233 8.19034 9.93182 8.19034 11.3663C8.19034 12.8008 9.23649 14.1882 9.37748 14.3823C9.52444 14.5761 11.417 17.5626 14.3555 18.7798C16.6535 19.7321 17.3354 19.6439 17.8584 19.5322C18.6224 19.3676 19.5804 18.803 19.8214 18.1213C20.0624 17.4392 20.0624 16.8572 19.9918 16.7337C19.9213 16.6103 19.7272 16.5399 19.4335 16.3928C19.1397 16.2458 17.7114 15.5403 17.441 15.4462C17.1765 15.3463 16.9239 15.3817 16.7242 15.6639C16.442 16.0578 16.1658 16.4576 15.9424 16.6985C15.7661 16.8867 15.478 16.9102 15.2371 16.8102C14.9139 16.6751 14.0089 16.3574 12.8921 15.3639C12.0281 14.5939 11.4404 13.6357 11.27 13.3477C11.0995 13.0539 11.2524 12.8831 11.3875 12.7245C11.5344 12.5422 11.6754 12.4129 11.8224 12.2424C11.9694 12.072 12.0516 11.9837 12.1457 11.7838C12.2457 11.5898 12.175 11.3899 12.1045 11.2429C12.034 11.0959 11.4464 9.66138 11.2054 9.07951Z" fill="#67C15E"/>
</g>
<defs>
<clipPath id="clip0_56_837">
<rect width="20" height="20" fill="white" transform="translate(4 4)"/>
</clipPath>
</defs>
</svg>
