
<svg width="66" height="66" viewBox="0 0 66 66" fill="none" xmlns="http://www.w3.org/2000/svg">
<circle cx="32.7468" cy="32.7468" r="32.7468" fill="white"/>
<g clip-path="url(#clip0_71_34)">
<path fill-rule="evenodd" clip-rule="evenodd" d="M32.74 9.3562C19.8452 9.3562 9.3562 19.8481 9.3562 32.7465C9.3562 37.8619 11.0059 42.6059 13.8102 46.4565L10.8957 55.1469L19.8863 52.2735C23.5841 54.7212 27.9969 56.1373 32.7535 56.1373C45.6483 56.1373 56.1373 45.645 56.1373 32.747C56.1373 19.8485 45.6483 9.35659 32.7535 9.35659L32.74 9.3562ZM26.2099 21.2375C25.7564 20.1512 25.4126 20.1101 24.7255 20.0821C24.4916 20.0686 24.2308 20.055 23.9418 20.055C23.0479 20.055 22.1133 20.3162 21.5495 20.8936C20.8624 21.5949 19.1576 23.2311 19.1576 26.5865C19.1576 29.9419 21.6046 33.187 21.9344 33.6411C22.2782 34.0944 26.705 41.0799 33.5784 43.9269C38.9534 46.1546 40.5484 45.9481 41.7717 45.6869C43.5587 45.3019 45.7997 43.9813 46.3634 42.3866C46.9271 40.7912 46.9271 39.4298 46.7618 39.1411C46.5969 38.8523 46.143 38.6878 45.4559 38.3435C44.7688 37.9997 41.4279 36.3495 40.7955 36.1295C40.1767 35.8959 39.5858 35.9785 39.1187 36.6387C38.4587 37.56 37.8128 38.4953 37.2902 39.0588C36.8778 39.4989 36.2038 39.554 35.6405 39.32C34.8843 39.0041 32.7675 38.2609 30.1553 35.937C28.1343 34.1359 26.7597 31.8947 26.3612 31.221C25.9624 30.5337 26.3201 30.1343 26.6359 29.7633C26.9796 29.3368 27.3095 29.0345 27.6532 28.6355C27.997 28.237 28.1894 28.0305 28.4094 27.5629C28.6433 27.1092 28.478 26.6416 28.3131 26.2977C28.1482 25.9539 26.7736 22.5985 26.2099 21.2375Z" fill="#67C15E"/>
</g>
<defs>
<clipPath id="clip0_71_34">
<rect width="46.7811" height="46.7811" fill="white" transform="translate(9.3562 9.3562)"/>
</clipPath>
</defs>
</svg>
